<svg width="114" height="49" viewBox="0 0 114 49" fill="none" xmlns="http://www.w3.org/2000/svg">
<path fill-rule="evenodd" clip-rule="evenodd" d="M18.6935 39.1974C18.7196 38.045 19.798 37.9362 20.4317 37.8407C22.4944 37.6051 29.16 37.5003 30.5047 36.5318C31.4655 35.8398 31.6743 34.0837 29.7085 33.0012C23.879 29.791 19.009 35.1204 6.62453 28.2956C3.57155 27.0786 -0.576727 28.3194 0.0667014 32.8443C2.05747 40.7145 10.2314 47.1978 18.5661 48.3398C40.6272 51.3626 49.1552 25.1734 43.4148 26.0703C42.8091 26.1649 41.9804 26.6071 41.5573 27.058L35.3931 34.2974C34.3818 35.5203 34.6715 34.8555 34.0631 36.5628C33.8397 37.1898 33.2323 37.9381 32.844 38.2328C30.5809 39.9509 26.4348 39.9258 23.2611 40.2007C20.957 40.4291 18.9046 40.7748 18.6932 39.1974H18.6935Z" fill="#5C5C5B"/>
<path fill-rule="evenodd" clip-rule="evenodd" d="M21.9272 25.6472C21.1613 24.7626 11.4181 17.1453 10.1918 15.7054L22.3699 23.6983C22.4091 23.72 22.4531 23.7451 22.4926 23.766L22.7644 23.8953C22.7989 23.9118 22.8584 23.9411 22.9082 23.9575C22.9252 23.9097 22.9244 23.7902 22.9468 23.8108C23.1413 23.9898 22.727 20.598 22.6917 20.3582C22.4964 19.0309 22.1578 17.6759 21.4992 16.4779C19.8482 13.4746 16.7257 11.6258 13.3849 10.851C12.3084 10.6013 11.2683 10.4954 10.0262 10.3781C8.23151 10.2085 4.07324 10.4031 2.21691 11.0209C3.61014 16.3673 4.46431 20.2674 8.87696 23.9321C13.2015 27.5237 17.2686 26.8365 21.9273 25.6473L21.9272 25.6472Z" fill="#9DB525"/>
<path fill-rule="evenodd" clip-rule="evenodd" d="M31.5227 31.5937C32.8252 32.2338 33.5578 33.4313 34.1893 34.4011C35.5893 32.8417 41.5525 26.5836 41.6069 26.3369C40.2771 24.9486 32.378 30.0421 31.5227 31.5937Z" fill="#5C5C5B"/>
<path fill-rule="evenodd" clip-rule="evenodd" d="M27.3181 29.911C28.2773 30.1275 30.0075 30.5579 30.9774 31.3247C32.2756 29.7682 37.8542 26.5826 38.3959 26.4869C37.3755 25.2727 28.1558 28.4501 27.3181 29.911Z" fill="#5C5C5B"/>
<path fill-rule="evenodd" clip-rule="evenodd" d="M24.1461 29.661C24.8293 29.656 26.2501 29.6454 26.9165 29.8135C27.6811 28.8967 31.3382 27.3732 32.0069 27.2777C29.8003 26.5907 24.6395 28.8004 24.146 29.661H24.1461Z" fill="#5C5C5B"/>
<path fill-rule="evenodd" clip-rule="evenodd" d="M28.9463 23.224C28.9337 22.0794 31.2388 10.3027 31.203 8.45174L27.2869 22.0007C27.2716 22.0413 27.2549 22.0875 27.2388 22.1274L27.1182 22.3922C27.103 22.4258 27.0772 22.4847 27.0502 22.5275C27.0049 22.5013 26.9244 22.4092 26.9214 22.4386C26.8935 22.6943 24.9134 19.8433 24.778 19.6379C24.0285 18.502 23.3701 17.2574 23.0631 15.9378C22.2936 12.6302 23.4336 9.30992 25.4681 6.67937C26.1238 5.83173 26.8489 5.11652 27.721 4.26909C28.981 3.0449 32.2989 0.658569 34.1396 0C36.6938 4.94565 38.6812 8.45451 37.7829 13.9527C36.9025 19.3411 33.321 21.2945 28.9463 23.2238V23.224Z" fill="#9DB525"/>
<path d="M53.1929 34.3591H59.7312V41.4485H60.6653V33.4729H52.2589V41.4485H53.1929V34.3591ZM68.6047 37.9039H62.0664V37.4609C62.0664 35.7417 63.5234 34.3592 65.3355 34.3592C67.1475 34.3592 68.6047 35.7417 68.6047 37.4609V37.9039ZM61.1323 41.4486H62.0664V38.79H68.6047V41.4486H69.5387V37.4609C69.5387 35.2632 67.6519 33.4731 65.3355 33.4731C63.0192 33.4731 61.1323 35.2632 61.1323 37.4609V41.4486ZM77.4781 36.1316C77.4781 37.1065 76.6374 37.904 75.61 37.904H70.9398V34.3592H75.61C76.6374 34.3592 77.4781 35.1568 77.4781 36.1316ZM70.0058 41.4486H70.9398V38.79H75.61C77.1606 38.79 78.4122 37.6026 78.4122 36.1315C78.4122 34.6604 77.1606 33.4729 75.61 33.4729H70.0058V41.4485V41.4486ZM78.8792 34.3592H82.6154V41.4486H83.5495V34.3592H87.2857V33.4731H78.8793V34.3592H78.8792ZM95.225 41.4486H96.1591V33.4731H95.225V37.0178H88.6867V33.4731H87.7527V41.4486H88.6867V37.9039H95.225V41.4486ZM112.972 36.1316C112.972 37.1065 112.131 37.904 111.104 37.904H106.433V34.3592H111.104C112.131 34.3592 112.972 35.1568 112.972 36.1316ZM105.499 41.4486H106.433V38.79H111.104C112.654 38.79 113.906 37.6026 113.906 36.1315C113.906 34.6604 112.654 33.4729 111.104 33.4729H105.499V41.4485V41.4486ZM96.626 37.4609C96.626 39.6584 98.5128 41.4486 100.829 41.4486H105.032V40.5624H100.829C99.3347 40.5624 98.0832 39.6231 97.6908 38.3471H105.032V37.4609C105.032 35.2632 103.146 33.4731 100.829 33.4731C98.5128 33.4731 96.626 35.2632 96.626 37.4609ZM97.56 37.4609C97.56 35.7417 99.0171 34.3592 100.829 34.3592C102.641 34.3592 104.098 35.7417 104.098 37.4609H97.56Z" fill="#5C5C5B"/>
<path d="M69.9742 20.8006H54.5652V19.7564C54.5652 15.7049 57.9992 12.4468 62.2697 12.4468C66.5402 12.4468 69.9741 15.7049 69.9741 19.7564V20.8006H69.9742ZM52.3639 29.1544H54.5652V22.8891H69.9742V29.1544H72.1755V19.7564C72.1755 14.577 67.7291 10.3584 62.2698 10.3584C56.8107 10.3584 52.364 14.577 52.364 19.7564V29.1544H52.3639ZM75.4774 12.4467H90.8866V29.1544H93.0877V10.3584H73.2762V29.1544H75.4775V12.4467H75.4774ZM94.1884 29.1544H96.3897V20.8006H102.994C107.836 20.8006 111.799 24.5599 111.799 29.1544H114C114 25.0193 111.447 21.4688 107.792 19.7564C111.447 18.0437 114 14.4936 114 10.3584H111.799C111.799 14.9529 107.836 18.7121 102.994 18.7121H96.3897V10.3584H94.1884V29.1544Z" fill="#5C5C5B"/>
</svg>
