<svg width="30" height="30" viewBox="0 0 30 30" fill="none" xmlns="http://www.w3.org/2000/svg">
<g clip-path="url(#clip0_1001_1216)">
<path d="M15 2.70117C19.0078 2.70117 19.4824 2.71875 21.0586 2.78907C22.5235 2.85352 23.3145 3.09961 23.8418 3.30469C24.5391 3.57422 25.043 3.90235 25.5645 4.42383C26.0918 4.95118 26.4141 5.44922 26.6836 6.14649C26.8887 6.67383 27.1348 7.47071 27.1992 8.9297C27.2696 10.5117 27.2871 10.9863 27.2871 14.9883C27.2871 18.9961 27.2696 19.4707 27.1992 21.0469C27.1348 22.5117 26.8887 23.3028 26.6836 23.8301C26.4141 24.5274 26.086 25.0313 25.5645 25.5528C25.0371 26.0801 24.5391 26.4024 23.8418 26.6719C23.3145 26.877 22.5176 27.1231 21.0586 27.1875C19.4766 27.2578 19.002 27.2754 15 27.2754C10.9922 27.2754 10.5176 27.2578 8.94142 27.1875C7.47657 27.1231 6.68555 26.877 6.15821 26.6719C5.46094 26.4024 4.95704 26.0742 4.43555 25.5528C3.90821 25.0254 3.58594 24.5274 3.31641 23.8301C3.11133 23.3028 2.86524 22.5059 2.80078 21.0469C2.73047 19.4649 2.71289 18.9903 2.71289 14.9883C2.71289 10.9805 2.73047 10.5059 2.80078 8.9297C2.86524 7.46485 3.11133 6.67383 3.31641 6.14649C3.58594 5.44922 3.91407 4.94532 4.43555 4.42383C4.9629 3.89649 5.46094 3.57422 6.15821 3.30469C6.68555 3.09961 7.48243 2.85352 8.94142 2.78907C10.5176 2.71875 10.9922 2.70117 15 2.70117ZM15 0C10.9277 0 10.418 0.0175781 8.81837 0.0878907C7.22462 0.158203 6.12891 0.416016 5.17969 0.785157C4.18946 1.17188 3.35157 1.68164 2.51953 2.51953C1.68164 3.35157 1.17188 4.18946 0.785157 5.17383C0.416016 6.12891 0.158203 7.21876 0.0878907 8.81251C0.0175781 10.418 0 10.9277 0 15C0 19.0723 0.0175781 19.5821 0.0878907 21.1817C0.158203 22.7754 0.416016 23.8711 0.785157 24.8203C1.17188 25.8106 1.68164 26.6485 2.51953 27.4805C3.35157 28.3125 4.18946 28.8282 5.17383 29.209C6.12891 29.5782 7.21876 29.836 8.81251 29.9063C10.4121 29.9766 10.9219 29.9942 14.9942 29.9942C19.0664 29.9942 19.5762 29.9766 21.1758 29.9063C22.7696 29.836 23.8653 29.5782 24.8145 29.209C25.7989 28.8282 26.6367 28.3125 27.4688 27.4805C28.3008 26.6485 28.8164 25.8106 29.1973 24.8262C29.5664 23.8711 29.8242 22.7813 29.8946 21.1875C29.9649 19.5879 29.9825 19.0781 29.9825 15.0059C29.9825 10.9336 29.9649 10.4238 29.8946 8.82423C29.8242 7.23048 29.5664 6.13477 29.1973 5.18555C28.8282 4.18946 28.3184 3.35157 27.4805 2.51953C26.6485 1.6875 25.8106 1.17188 24.8262 0.791016C23.8711 0.421875 22.7813 0.164063 21.1875 0.0937501C19.5821 0.0175781 19.0723 0 15 0Z" fill="#5C5C5B"/>
<path d="M15 7.29501C10.7461 7.29501 7.29489 10.7462 7.29489 15.0001C7.29489 19.254 10.7461 22.7052 15 22.7052C19.2539 22.7052 22.7051 19.254 22.7051 15.0001C22.7051 10.7462 19.2539 7.29501 15 7.29501ZM15 19.9981C12.2402 19.9981 10.0019 17.7599 10.0019 15.0001C10.0019 12.2403 12.2402 10.002 15 10.002C17.7597 10.002 19.998 12.2403 19.998 15.0001C19.998 17.7599 17.7597 19.9981 15 19.9981Z" fill="#5C5C5B"/>
<path d="M24.8087 6.99025C24.8087 7.98635 24.0001 8.78909 23.0098 8.78909C22.0137 8.78909 21.211 7.98049 21.211 6.99025C21.211 5.99416 22.0196 5.19142 23.0098 5.19142C24.0001 5.19142 24.8087 6.00002 24.8087 6.99025Z" fill="#5C5C5B"/>
</g>
<defs>
<clipPath id="clip0_1001_1216">
<rect width="29.1111" height="29.1111" fill="white" transform="scale(1.03054)"/>
</clipPath>
</defs>
</svg>
