<svg width="30" height="30" viewBox="0 0 30 30" fill="none" xmlns="http://www.w3.org/2000/svg">
<path d="M21.8126 28.4374C20.4001 28.4374 18.9126 28.0999 17.375 27.4499C15.875 26.8124 14.3625 25.9374 12.8875 24.8749C11.425 23.7999 10.0125 22.5999 8.67504 21.2874C7.35004 19.9499 6.15004 18.5374 5.08754 17.0874C4.01254 15.5874 3.15004 14.0874 2.53753 12.6374C1.88753 11.0874 1.56253 9.58742 1.56253 8.17491C1.56253 7.19991 1.73753 6.27491 2.07503 5.41241C2.42503 4.52491 2.98754 3.69991 3.75004 2.98741C4.71254 2.03741 5.81254 1.56241 6.98754 1.56241C7.47504 1.56241 7.97504 1.67491 8.40004 1.87491C8.88754 2.09991 9.30004 2.43741 9.60004 2.88741L12.5 6.97491C12.7625 7.33741 12.9625 7.68741 13.1 8.03741C13.2625 8.41241 13.35 8.78742 13.35 9.14992C13.35 9.62492 13.2125 10.0874 12.95 10.5249C12.7625 10.8624 12.475 11.2249 12.1125 11.5874L11.2625 12.4749C11.275 12.5124 11.2875 12.5374 11.3 12.5624C11.45 12.8249 11.75 13.2749 12.325 13.9499C12.9375 14.6499 13.5125 15.2874 14.0875 15.8749C14.825 16.5999 15.4375 17.1749 16.0125 17.6499C16.725 18.2499 17.1875 18.5499 17.4625 18.6874L17.4375 18.7499L18.35 17.8499C18.7375 17.4624 19.1126 17.1749 19.4751 16.9874C20.1626 16.5624 21.0376 16.4874 21.9126 16.8499C22.2376 16.9874 22.5876 17.1749 22.9626 17.4374L27.1126 20.3874C27.5751 20.6999 27.9126 21.0999 28.1126 21.5749C28.3001 22.0499 28.3876 22.4874 28.3876 22.9249C28.3876 23.5249 28.2501 24.1249 27.9876 24.6874C27.7251 25.2499 27.4001 25.7374 26.9876 26.1874C26.2751 26.9749 25.5001 27.5374 24.6001 27.8999C23.7376 28.2499 22.8001 28.4374 21.8126 28.4374ZM6.98754 3.43741C6.30004 3.43741 5.66254 3.73741 5.05004 4.33741C4.47504 4.87491 4.07504 5.46241 3.82504 6.09991C3.56254 6.74991 3.43754 7.43741 3.43754 8.17491C3.43754 9.33742 3.71254 10.5999 4.26254 11.8999C4.82504 13.2249 5.61254 14.5999 6.61254 15.9749C7.61254 17.3499 8.75004 18.6874 10 19.9499C11.25 21.1874 12.6 22.3374 13.9875 23.3499C15.3375 24.3374 16.725 25.1374 18.1001 25.7124C20.2376 26.6249 22.2376 26.8374 23.8876 26.1499C24.5251 25.8874 25.0876 25.4874 25.6001 24.9124C25.8876 24.5999 26.1126 24.2624 26.3001 23.8624C26.4501 23.5499 26.5251 23.2249 26.5251 22.8999C26.5251 22.6999 26.4876 22.4999 26.3876 22.2749C26.3501 22.1999 26.2751 22.0624 26.0376 21.8999L21.8876 18.9499C21.6376 18.7749 21.4126 18.6499 21.2001 18.5624C20.9251 18.4499 20.8126 18.3374 20.3876 18.5999C20.1376 18.7249 19.9126 18.9124 19.6626 19.1624L18.7126 20.0999C18.225 20.5749 17.475 20.6874 16.9 20.4749L16.5625 20.3249C16.05 20.0499 15.45 19.6249 14.7875 19.0624C14.1875 18.5499 13.5375 17.9499 12.75 17.1749C12.1375 16.5499 11.525 15.8874 10.8875 15.1499C10.3 14.4624 9.87504 13.8749 9.61254 13.3874L9.46254 13.0124C9.38754 12.7249 9.36254 12.5624 9.36254 12.3874C9.36254 11.9374 9.52504 11.5374 9.83754 11.2249L10.775 10.2499C11.025 9.99992 11.2125 9.76242 11.3375 9.54992C11.4375 9.38742 11.475 9.24992 11.475 9.12492C11.475 9.02492 11.4375 8.87492 11.375 8.72491C11.2875 8.52491 11.15 8.29991 10.975 8.06241L8.07504 3.96241C7.95004 3.78741 7.80004 3.66241 7.61254 3.57491C7.41254 3.48741 7.20004 3.43741 6.98754 3.43741ZM17.4375 18.7624L17.2375 19.6124L17.575 18.7374C17.5125 18.7249 17.4625 18.7374 17.4375 18.7624Z" fill="#5C5C5B"/>
</svg>
