<svg width="21" height="21" viewBox="0 0 21 21" fill="none" xmlns="http://www.w3.org/2000/svg">
<g clip-path="url(#clip0_1001_1294)">
<path d="M20.9824 1.77008V5.27009C20.9824 5.50215 20.8902 5.72471 20.7261 5.8888C20.562 6.0529 20.3395 6.14509 20.1074 6.14509C19.8753 6.14509 19.6528 6.0529 19.4887 5.8888C19.3246 5.72471 19.2324 5.50215 19.2324 5.27009V3.02746L14.5949 7.64046C14.4294 7.79945 14.2081 7.88707 13.9787 7.88445C13.7492 7.88184 13.53 7.78919 13.3682 7.62647C13.2064 7.46376 13.115 7.244 13.1137 7.01454C13.1124 6.78507 13.2012 6.56428 13.3612 6.39971L18.0162 1.77008H15.7324C15.5003 1.77008 15.2778 1.6779 15.1137 1.5138C14.9496 1.34971 14.8574 1.12715 14.8574 0.895082C14.8574 0.663017 14.9496 0.440457 15.1137 0.276363C15.2778 0.112268 15.5003 0.0200808 15.7324 0.0200808H19.2324C19.6965 0.0200808 20.1417 0.204455 20.4698 0.532644C20.798 0.860833 20.9824 1.30595 20.9824 1.77008ZM20.1905 14.6667C20.6976 15.1752 20.9824 15.864 20.9824 16.5821C20.9824 17.3002 20.6976 17.989 20.1905 18.4975L19.3925 19.4162C12.2254 26.2745 -5.21249 8.84184 1.54252 1.65371L2.54789 0.778706C3.05722 0.285881 3.73994 0.013134 4.44864 0.019355C5.15734 0.025576 5.83517 0.310265 6.33577 0.811956C6.36202 0.839081 7.9834 2.94608 7.9834 2.94608C8.46436 3.45135 8.73217 4.12249 8.73119 4.82007C8.73022 5.51766 8.46052 6.18804 7.97815 6.69196L6.96402 7.96684C7.52476 9.32931 8.3492 10.5676 9.38997 11.6104C10.4307 12.6533 11.6673 13.4802 13.0287 14.0437L14.3105 13.0243C14.8144 12.5422 15.4846 12.2727 16.182 12.2717C16.8794 12.2707 17.5503 12.5384 18.0555 13.0191C18.0555 13.0191 20.1634 14.6405 20.1905 14.6667ZM18.9874 15.939C18.9874 15.939 16.8935 14.3272 16.8664 14.301C16.6861 14.1222 16.4426 14.022 16.1887 14.022C15.9349 14.022 15.6913 14.1222 15.511 14.301C15.4874 14.3237 13.7225 15.7307 13.7225 15.7307C13.6036 15.8254 13.4621 15.8874 13.3118 15.9108C13.1616 15.9341 13.0079 15.9179 12.8659 15.8637C11.1012 15.2075 9.49836 14.1793 8.16614 12.8489C6.83392 11.5185 5.80353 9.91701 5.14489 8.15321C5.08728 8.00982 5.06866 7.85372 5.09095 7.70079C5.11323 7.54787 5.17562 7.40358 5.27177 7.28259C5.27177 7.28259 6.6779 5.51771 6.70152 5.49409C6.88026 5.31382 6.98054 5.07025 6.98054 4.8164C6.98054 4.56255 6.88026 4.31897 6.70152 4.13871C6.67527 4.11246 5.06352 2.01771 5.06352 2.01771C4.88067 1.85354 4.64195 1.76552 4.39628 1.7717C4.15062 1.77789 3.91663 1.8778 3.74227 2.05096L2.73689 2.92596C-2.20161 8.86021 12.9123 23.1367 18.1124 18.2227L18.9104 17.304C19.0985 17.1313 19.2119 16.8921 19.2262 16.6371C19.2406 16.3822 19.1549 16.1317 18.9874 15.939Z" fill="#264A59"/>
</g>
<defs>
<clipPath id="clip0_1001_1294">
<rect width="20.7066" height="20.7066" fill="white" transform="scale(1.01417)"/>
</clipPath>
</defs>
</svg>
