<svg width="30" height="30" viewBox="0 0 30 30" fill="none" xmlns="http://www.w3.org/2000/svg">
<path d="M15 5.16809e-08C12.0333 5.16808e-08 9.1332 0.879735 6.66646 2.52796C4.19972 4.17618 2.27713 6.51886 1.14181 9.25975C0.00649926 12.0006 -0.290551 15.0166 0.288228 17.9264C0.867007 20.8361 2.29562 23.5088 4.39341 25.6066C6.4912 27.7044 9.16394 29.133 12.0737 29.7118C14.9834 30.2906 17.9994 29.9935 20.7403 28.8582C23.4812 27.7229 25.8238 25.8003 27.4721 23.3336C29.1203 20.8668 30 17.9667 30 15C30.0002 13.0301 29.6123 11.0795 28.8586 9.25956C28.1048 7.4396 26.9999 5.78595 25.607 4.39304C24.2141 3.00012 22.5604 1.89524 20.7405 1.14147C18.9205 0.387712 16.9699 -0.000163468 15 5.16809e-08ZM19.7693 22.7287C19.7131 22.8687 19.6277 22.9951 19.5187 23.0994C19.4098 23.2037 19.2797 23.2834 19.1374 23.3334C18.9951 23.3833 18.8437 23.4022 18.6935 23.3889C18.5432 23.3755 18.3976 23.3302 18.2663 23.256L14.1943 20.0919L11.5808 22.503C11.5202 22.5478 11.4492 22.5767 11.3745 22.5869C11.2998 22.5971 11.2237 22.5883 11.1533 22.5614L11.6543 18.0787L11.6703 18.0915L11.6806 18.0029C11.6806 18.0029 19.0081 11.3317 19.3066 11.0474C19.6088 10.7639 19.5091 10.7024 19.5091 10.7024C19.5263 10.3567 18.9668 10.7024 18.9668 10.7024L9.25801 16.9485L5.21478 15.5715C5.21478 15.5715 4.59377 15.3488 4.53527 14.859C4.47377 14.373 5.23501 14.109 5.23501 14.109L21.3105 7.72274C21.3105 7.72274 22.632 7.13396 22.632 8.10901L19.7693 22.7287Z" fill="#5C5C5B"/>
</svg>
