<svg width="31" height="30" viewBox="0 0 31 30" fill="none" xmlns="http://www.w3.org/2000/svg">
<g clip-path="url(#clip0_103_1416)">
<path d="M15.3265 2.67374C19.2936 2.67374 19.7634 2.69114 21.3236 2.76073C22.7736 2.82453 23.5565 3.06813 24.0785 3.27112C24.7687 3.53792 25.2675 3.86271 25.7837 4.3789C26.3057 4.90088 26.6247 5.39387 26.8915 6.08406C27.0944 6.60604 27.338 7.39482 27.4018 8.83899C27.4714 10.405 27.4888 10.8747 27.4888 14.836C27.4888 18.8032 27.4714 19.2729 27.4018 20.8331C27.338 22.2831 27.0944 23.0661 26.8915 23.588C26.6247 24.2782 26.2999 24.777 25.7837 25.2932C25.2617 25.8152 24.7687 26.1342 24.0785 26.401C23.5565 26.604 22.7678 26.8476 21.3236 26.9114C19.7576 26.981 19.2878 26.9984 15.3265 26.9984C11.3594 26.9984 10.8896 26.981 9.32947 26.9114C7.87951 26.8476 7.09652 26.604 6.57454 26.401C5.88435 26.1342 5.38557 25.8094 4.86938 25.2932C4.34739 24.7712 4.0284 24.2782 3.7616 23.588C3.55861 23.0661 3.31501 22.2773 3.25122 20.8331C3.18162 19.2671 3.16422 18.7974 3.16422 14.836C3.16422 10.8689 3.18162 10.3992 3.25122 8.83899C3.31501 7.38902 3.55861 6.60604 3.7616 6.08406C4.0284 5.39387 4.35319 4.89508 4.86938 4.3789C5.39136 3.85691 5.88435 3.53792 6.57454 3.27112C7.09652 3.06813 7.88531 2.82453 9.32947 2.76073C10.8896 2.69114 11.3594 2.67374 15.3265 2.67374ZM15.3265 0C11.2956 0 10.791 0.0173996 9.20767 0.0869979C7.63011 0.156596 6.54554 0.41179 5.60596 0.777181C4.62578 1.15997 3.7964 1.66456 2.97282 2.49394C2.14344 3.31752 1.63885 4.1469 1.25606 5.12128C0.890672 6.06666 0.635478 7.14543 0.56588 8.72299C0.496281 10.3122 0.478882 10.8167 0.478882 14.8476C0.478882 18.8786 0.496281 19.3831 0.56588 20.9665C0.635478 22.5441 0.890672 23.6286 1.25606 24.5682C1.63885 25.5484 2.14344 26.3778 2.97282 27.2014C3.7964 28.0249 4.62578 28.5353 5.60016 28.9123C6.54554 29.2777 7.62431 29.5329 9.20187 29.6025C10.7852 29.6721 11.2898 29.6895 15.3207 29.6895C19.3516 29.6895 19.8562 29.6721 21.4396 29.6025C23.0171 29.5329 24.1017 29.2777 25.0413 28.9123C26.0157 28.5353 26.8451 28.0249 27.6686 27.2014C28.4922 26.3778 29.0026 25.5484 29.3796 24.574C29.745 23.6286 30.0002 22.5499 30.0698 20.9723C30.1394 19.3889 30.1568 18.8844 30.1568 14.8534C30.1568 10.8225 30.1394 10.318 30.0698 8.73459C30.0002 7.15703 29.745 6.07246 29.3796 5.13288C29.0142 4.1469 28.5096 3.31752 27.6802 2.49394C26.8567 1.67036 26.0273 1.15997 25.0529 0.782981C24.1075 0.41759 23.0287 0.162396 21.4512 0.0927978C19.862 0.0173996 19.3574 0 15.3265 0Z" fill="#545454"/>
<path d="M15.3265 7.22083C11.1158 7.22083 7.69971 10.6369 7.69971 14.8476C7.69971 19.0583 11.1158 22.4745 15.3265 22.4745C19.5372 22.4745 22.9533 19.0583 22.9533 14.8476C22.9533 10.6369 19.5372 7.22083 15.3265 7.22083ZM15.3265 19.7949C12.5948 19.7949 10.3792 17.5794 10.3792 14.8476C10.3792 12.1159 12.5948 9.90036 15.3265 9.90036C18.0583 9.90036 20.2738 12.1159 20.2738 14.8476C20.2738 17.5794 18.0583 19.7949 15.3265 19.7949Z" fill="#545454"/>
<path d="M25.0355 6.91923C25.0355 7.90521 24.2351 8.69979 23.2549 8.69979C22.2689 8.69979 21.4744 7.89941 21.4744 6.91923C21.4744 5.93325 22.2747 5.13867 23.2549 5.13867C24.2351 5.13867 25.0355 5.93905 25.0355 6.91923Z" fill="#545454"/>
</g>
<defs>
<clipPath id="clip0_103_1416">
<rect width="29.6953" height="29.6953" fill="white" transform="translate(0.478882)"/>
</clipPath>
</defs>
</svg>
