<svg width="114" height="49" viewBox="0 0 114 49" fill="none" xmlns="http://www.w3.org/2000/svg">
<path fill-rule="evenodd" clip-rule="evenodd" d="M18.6935 39.1974C18.7196 38.045 19.798 37.9361 20.4317 37.8407C22.4944 37.6051 29.16 37.5003 30.5047 36.5318C31.4655 35.8398 31.6743 34.0836 29.7085 33.0011C23.879 29.791 19.009 35.1204 6.62452 28.2956C3.57155 27.0786 -0.576726 28.3194 0.0667013 32.8443C2.05747 40.7145 10.2314 47.1977 18.5661 48.3397C40.6272 51.3626 49.1552 25.1734 43.4148 26.0703C42.8091 26.1648 41.9804 26.6071 41.5572 27.058L35.3931 34.2974C34.3818 35.5203 34.6715 34.8555 34.0631 36.5628C33.8397 37.1898 33.2323 37.9381 32.844 38.2327C30.5809 39.9509 26.4348 39.9258 23.2611 40.2007C20.957 40.429 18.9046 40.7748 18.6932 39.1974H18.6935Z" fill="#5C5C5B"/>
<path fill-rule="evenodd" clip-rule="evenodd" d="M21.9272 25.6473C21.1613 24.7627 11.4181 17.1454 10.1918 15.7055L22.3699 23.6984C22.4092 23.7201 22.4531 23.7452 22.4926 23.7661L22.7644 23.8955C22.7989 23.912 22.8585 23.9412 22.9082 23.9576C22.9252 23.9098 22.9244 23.7903 22.9468 23.8109C23.1413 23.9899 22.7271 20.5981 22.6917 20.3583C22.4965 19.031 22.1578 17.676 21.4992 16.478C19.8482 13.4747 16.7257 11.6259 13.3849 10.8511C12.3084 10.6014 11.2683 10.4955 10.0263 10.3782C8.23152 10.2086 4.07326 10.4032 2.21692 11.021C3.61016 16.3674 4.46432 20.2675 8.87697 23.9322C13.2015 27.5239 17.2686 26.8367 21.9273 25.6474L21.9272 25.6473Z" fill="#9DB525"/>
<path fill-rule="evenodd" clip-rule="evenodd" d="M31.5227 31.5935C32.8252 32.2337 33.5578 33.4312 34.1894 34.4009C35.5893 32.8416 41.5525 26.5835 41.607 26.3368C40.2771 24.9485 32.378 30.042 31.5227 31.5935Z" fill="#5C5C5B"/>
<path fill-rule="evenodd" clip-rule="evenodd" d="M27.318 29.911C28.2772 30.1275 30.0074 30.5579 30.9774 31.3247C32.2756 29.7682 37.8541 26.5826 38.3959 26.4869C37.3754 25.2727 28.1558 28.4501 27.318 29.911Z" fill="#5C5C5B"/>
<path fill-rule="evenodd" clip-rule="evenodd" d="M24.1462 29.6608C24.8293 29.6558 26.2501 29.6453 26.9165 29.8134C27.6811 28.8966 31.3382 27.3731 32.0069 27.2776C29.8003 26.5906 24.6396 28.8003 24.146 29.6608H24.1462Z" fill="#5C5C5B"/>
<path fill-rule="evenodd" clip-rule="evenodd" d="M28.9463 23.224C28.9337 22.0794 31.2388 10.3027 31.203 8.45173L27.2869 22.0007C27.2716 22.0413 27.2549 22.0875 27.2388 22.1274L27.1182 22.3922C27.1031 22.4258 27.0773 22.4847 27.0502 22.5275C27.0049 22.5013 26.9244 22.4092 26.9214 22.4386C26.8936 22.6943 24.9135 19.8433 24.778 19.6379C24.0285 18.502 23.3701 17.2573 23.0631 15.9378C22.2936 12.6302 23.4336 9.30992 25.4681 6.67937C26.1238 5.83173 26.8489 5.11652 27.721 4.26909C28.9811 3.04489 32.299 0.658568 34.1396 0C36.6938 4.94565 38.6812 8.4545 37.7829 13.9527C36.9025 19.3411 33.321 21.2945 28.9463 23.2237V23.224Z" fill="#9DB525"/>
<path d="M53.1929 34.3591H59.7312V41.4485H60.6653V33.4729H52.2589V41.4485H53.1929V34.3591ZM68.6047 37.9038H62.0664V37.4609C62.0664 35.7417 63.5235 34.3592 65.3355 34.3592C67.1475 34.3592 68.6047 35.7417 68.6047 37.4609V37.9038ZM61.1323 41.4486H62.0664V38.79H68.6047V41.4486H69.5387V37.4609C69.5387 35.2632 67.6519 33.473 65.3355 33.473C63.0192 33.473 61.1323 35.2632 61.1323 37.4609V41.4486ZM77.4781 36.1316C77.4781 37.1065 76.6374 37.904 75.61 37.904H70.9398V34.3592H75.61C76.6374 34.3592 77.4781 35.1568 77.4781 36.1316ZM70.0058 41.4486H70.9398V38.79H75.61C77.1606 38.79 78.4122 37.6026 78.4122 36.1315C78.4122 34.6604 77.1606 33.4729 75.61 33.4729H70.0058V41.4485V41.4486ZM78.8792 34.3592H82.6155V41.4486H83.5495V34.3592H87.2857V33.473H78.8793V34.3592H78.8792ZM95.225 41.4486H96.1591V33.473H95.225V37.0178H88.6867V33.473H87.7527V41.4486H88.6867V37.9038H95.225V41.4486ZM112.972 36.1316C112.972 37.1065 112.131 37.904 111.104 37.904H106.433V34.3592H111.104C112.131 34.3592 112.972 35.1568 112.972 36.1316ZM105.499 41.4486H106.433V38.79H111.104C112.654 38.79 113.906 37.6026 113.906 36.1315C113.906 34.6604 112.654 33.4729 111.104 33.4729H105.499V41.4485V41.4486ZM96.626 37.4609C96.626 39.6584 98.5129 41.4486 100.829 41.4486H105.032V40.5624H100.829C99.3347 40.5624 98.0832 39.6231 97.6908 38.347H105.032V37.4609C105.032 35.2632 103.146 33.473 100.829 33.473C98.5129 33.473 96.626 35.2632 96.626 37.4609ZM97.5601 37.4609C97.5601 35.7417 99.0171 34.3592 100.829 34.3592C102.641 34.3592 104.098 35.7417 104.098 37.4609H97.5601Z" fill="#5C5C5B"/>
<path d="M69.9742 20.8005H54.5652V19.7562C54.5652 15.7047 57.9992 12.4467 62.2697 12.4467C66.5402 12.4467 69.9741 15.7047 69.9741 19.7562V20.8005H69.9742ZM52.3639 29.1543H54.5652V22.8889H69.9742V29.1543H72.1755V19.7562C72.1755 14.5769 67.7291 10.3583 62.2698 10.3583C56.8107 10.3583 52.364 14.5769 52.364 19.7562V29.1543H52.3639ZM75.4774 12.4466H90.8865V29.1543H93.0877V10.3583H73.2762V29.1543H75.4775V12.4466H75.4774ZM94.1884 29.1543H96.3897V20.8005H102.994C107.836 20.8005 111.799 24.5598 111.799 29.1543H114C114 25.0191 111.446 21.4687 107.792 19.7562C111.447 18.0436 114 14.4934 114 10.3583H111.799C111.799 14.9528 107.836 18.7119 102.994 18.7119H96.3897V10.3583H94.1884V29.1543Z" fill="#5C5C5B"/>
</svg>
