<svg width="21" height="24" viewBox="28 0 17 52" fill="none" xmlns="http://www.w3.org/2000/svg">
<path fill-rule="evenodd" clip-rule="evenodd" d="M28.9463 23.224C28.9338 22.0794 31.2388 10.3027 31.203 8.45174L27.2869 22.0007C27.2717 22.0413 27.2549 22.0875 27.2389 22.1274L27.1183 22.3922C27.1031 22.4258 27.0773 22.4847 27.0503 22.5275C27.0049 22.5013 26.9245 22.4092 26.9214 22.4386C26.8936 22.6943 24.9135 19.8433 24.7781 19.6379C24.0286 18.502 23.3701 17.2574 23.0631 15.9378C22.2937 12.6302 23.4337 9.30993 25.4682 6.67938C26.1238 5.83173 26.849 5.11653 27.7211 4.26909C28.9811 3.0449 32.299 0.658569 34.1397 0C36.6938 4.94566 38.6812 8.45451 37.783 13.9527C36.9026 19.3411 33.3211 21.2945 28.9463 23.2238V23.224Z" fill="#9DB525"/>
</svg>
