<svg width="113" height="48" viewBox="51 10 64 33" fill="none" xmlns="http://www.w3.org/2000/svg">
<path d="M53.1929 34.3591H59.7312V41.4485H60.6653V33.4729H52.2589V41.4485H53.1929V34.3591ZM68.6047 37.9038H62.0664V37.4609C62.0664 35.7417 63.5235 34.3592 65.3355 34.3592C67.1475 34.3592 68.6047 35.7417 68.6047 37.4609V37.9038ZM61.1323 41.4486H62.0664V38.79H68.6047V41.4486H69.5387V37.4609C69.5387 35.2632 67.6519 33.473 65.3355 33.473C63.0192 33.473 61.1323 35.2632 61.1323 37.4609V41.4486ZM77.4781 36.1316C77.4781 37.1065 76.6374 37.904 75.61 37.904H70.9398V34.3592H75.61C76.6374 34.3592 77.4781 35.1568 77.4781 36.1316ZM70.0058 41.4486H70.9398V38.79H75.61C77.1606 38.79 78.4122 37.6026 78.4122 36.1315C78.4122 34.6604 77.1606 33.4729 75.61 33.4729H70.0058V41.4485V41.4486ZM78.8792 34.3592H82.6155V41.4486H83.5495V34.3592H87.2857V33.473H78.8793V34.3592H78.8792ZM95.225 41.4486H96.1591V33.473H95.225V37.0178H88.6867V33.473H87.7527V41.4486H88.6867V37.9038H95.225V41.4486ZM112.972 36.1316C112.972 37.1065 112.131 37.904 111.104 37.904H106.433V34.3592H111.104C112.131 34.3592 112.972 35.1568 112.972 36.1316ZM105.499 41.4486H106.433V38.79H111.104C112.654 38.79 113.906 37.6026 113.906 36.1315C113.906 34.6604 112.654 33.4729 111.104 33.4729H105.499V41.4485V41.4486ZM96.626 37.4609C96.626 39.6584 98.5129 41.4486 100.829 41.4486H105.032V40.5624H100.829C99.3347 40.5624 98.0832 39.6231 97.6908 38.347H105.032V37.4609C105.032 35.2632 103.146 33.473 100.829 33.473C98.5129 33.473 96.626 35.2632 96.626 37.4609ZM97.5601 37.4609C97.5601 35.7417 99.0171 34.3592 100.829 34.3592C102.641 34.3592 104.098 35.7417 104.098 37.4609H97.5601Z" fill="#5C5C5B"/>
<path d="M69.9742 20.8005H54.5652V19.7562C54.5652 15.7047 57.9992 12.4467 62.2697 12.4467C66.5402 12.4467 69.9741 15.7047 69.9741 19.7562V20.8005H69.9742ZM52.3639 29.1543H54.5652V22.8889H69.9742V29.1543H72.1755V19.7562C72.1755 14.5769 67.7291 10.3583 62.2698 10.3583C56.8107 10.3583 52.364 14.5769 52.364 19.7562V29.1543H52.3639ZM75.4774 12.4466H90.8865V29.1543H93.0877V10.3583H73.2762V29.1543H75.4775V12.4466H75.4774ZM94.1884 29.1543H96.3897V20.8005H102.994C107.836 20.8005 111.799 24.5598 111.799 29.1543H114C114 25.0191 111.446 21.4687 107.792 19.7562C111.447 18.0436 114 14.4934 114 10.3583H111.799C111.799 14.9528 107.836 18.7119 102.994 18.7119H96.3897V10.3583H94.1884V29.1543Z" fill="#5C5C5B"/>
</svg>
