<svg width="114" height="49" viewBox="0 0 114 49" fill="none" xmlns="http://www.w3.org/2000/svg">
<path fill-rule="evenodd" clip-rule="evenodd" d="M18.6935 39.1975C18.7196 38.045 19.798 37.9362 20.4318 37.8407C22.4945 37.6051 29.16 37.5004 30.5048 36.5319C31.4655 35.8399 31.6744 34.0837 29.7085 33.0012C23.879 29.7911 19.009 35.1204 6.62453 28.2956C3.57156 27.0787 -0.576727 28.3195 0.0667014 32.8444C2.05747 40.7145 10.2314 47.1978 18.5661 48.3398C40.6273 51.3627 49.1552 25.1734 43.4149 26.0704C42.8091 26.1649 41.9804 26.6071 41.5573 27.058L35.3931 34.2975C34.3818 35.5204 34.6716 34.8555 34.0631 36.5629C33.8397 37.1898 33.2323 37.9381 32.8441 38.2328C30.581 39.951 26.4348 39.9259 23.2611 40.2007C20.957 40.4291 18.9047 40.7749 18.6932 39.1975H18.6935Z" fill="#5C5C5B"/>
<path fill-rule="evenodd" clip-rule="evenodd" d="M21.9273 25.6472C21.1615 24.7626 11.4183 17.1453 10.1919 15.7054L22.37 23.6983C22.4093 23.72 22.4533 23.7452 22.4928 23.766L22.7646 23.8954C22.799 23.9119 22.8586 23.9412 22.9083 23.9575C22.9253 23.9097 22.9246 23.7902 22.9469 23.8108C23.1415 23.9898 22.7272 20.5981 22.6918 20.3582C22.4966 19.0309 22.1579 17.6759 21.4994 16.4779C19.8484 13.4746 16.7258 11.6258 13.385 10.851C12.3086 10.6013 11.2685 10.4954 10.0264 10.3781C8.23164 10.2085 4.07337 10.4031 2.21703 11.0209C3.61027 16.3673 4.46443 20.2674 8.87709 23.9321C13.2017 27.5238 17.2687 26.8366 21.9274 25.6473L21.9273 25.6472Z" fill="#9DB525"/>
<path fill-rule="evenodd" clip-rule="evenodd" d="M31.523 31.5937C32.8255 32.2338 33.5581 33.4313 34.1897 34.4011C35.5896 32.8417 41.5529 26.5836 41.6073 26.3369C40.2774 24.9486 32.3783 30.0421 31.523 31.5937Z" fill="#5C5C5B"/>
<path fill-rule="evenodd" clip-rule="evenodd" d="M27.318 29.9111C28.2772 30.1275 30.0074 30.5579 30.9774 31.3248C32.2756 29.7682 37.8541 26.5827 38.3959 26.4869C37.3754 25.2728 28.1558 28.4501 27.318 29.9111Z" fill="#5C5C5B"/>
<path fill-rule="evenodd" clip-rule="evenodd" d="M24.1462 29.661C24.8293 29.6559 26.2501 29.6454 26.9165 29.8135C27.6811 28.8967 31.3382 27.3732 32.0069 27.2777C29.8003 26.5907 24.6396 28.8004 24.146 29.661H24.1462Z" fill="#5C5C5B"/>
<path fill-rule="evenodd" clip-rule="evenodd" d="M28.9463 23.224C28.9338 22.0794 31.2388 10.3027 31.203 8.45174L27.2869 22.0007C27.2717 22.0413 27.2549 22.0875 27.2389 22.1274L27.1183 22.3922C27.1031 22.4258 27.0773 22.4847 27.0503 22.5275C27.0049 22.5013 26.9245 22.4092 26.9214 22.4386C26.8936 22.6943 24.9135 19.8433 24.7781 19.6379C24.0286 18.502 23.3701 17.2574 23.0631 15.9378C22.2937 12.6302 23.4337 9.30993 25.4682 6.67938C26.1238 5.83173 26.849 5.11653 27.7211 4.26909C28.9811 3.0449 32.299 0.658569 34.1397 0C36.6938 4.94566 38.6812 8.45451 37.783 13.9527C36.9026 19.3411 33.3211 21.2945 28.9463 23.2238V23.224Z" fill="#9DB525"/>
<path d="M53.1928 34.3592H59.7311V41.4486H60.6652V33.473H52.2588V41.4486H53.1928V34.3592ZM68.6046 37.904H62.0663V37.461C62.0663 35.7418 63.5234 34.3593 65.3354 34.3593C67.1474 34.3593 68.6046 35.7418 68.6046 37.461V37.904ZM61.1322 41.4487H62.0663V38.7901H68.6046V41.4487H69.5386V37.461C69.5386 35.2633 67.6518 33.4731 65.3354 33.4731C63.0191 33.4731 61.1322 35.2633 61.1322 37.461V41.4487ZM77.478 36.1317C77.478 37.1066 76.6373 37.9041 75.6099 37.9041H70.9397V34.3593H75.6099C76.6373 34.3593 77.478 35.1569 77.478 36.1317ZM70.0057 41.4487H70.9397V38.7901H75.6099C77.1605 38.7901 78.4121 37.6027 78.4121 36.1316C78.4121 34.6605 77.1605 33.473 75.6099 33.473H70.0057V41.4486V41.4487ZM78.8791 34.3593H82.6154V41.4487H83.5494V34.3593H87.2857V33.4731H78.8792V34.3593H78.8791ZM95.2249 41.4487H96.159V33.4731H95.2249V37.0179H88.6866V33.4731H87.7526V41.4487H88.6866V37.904H95.2249V41.4487ZM112.972 36.1317C112.972 37.1066 112.131 37.9041 111.104 37.9041H106.433V34.3593H111.104C112.131 34.3593 112.972 35.1569 112.972 36.1317ZM105.499 41.4487H106.433V38.7901H111.104C112.654 38.7901 113.906 37.6027 113.906 36.1316C113.906 34.6605 112.654 33.473 111.104 33.473H105.499V41.4486V41.4487ZM96.6259 37.461C96.6259 39.6585 98.5128 41.4487 100.829 41.4487H105.032V40.5625H100.829C99.3346 40.5625 98.0831 39.6232 97.6907 38.3471H105.032V37.461C105.032 35.2633 103.145 33.4731 100.829 33.4731C98.5128 33.4731 96.6259 35.2633 96.6259 37.461ZM97.56 37.461C97.56 35.7418 99.0171 34.3593 100.829 34.3593C102.641 34.3593 104.098 35.7418 104.098 37.461H97.56Z" fill="#5C5C5B"/>
<path d="M69.9743 20.8006H54.5652V19.7564C54.5652 15.7049 57.9993 12.4468 62.2698 12.4468C66.5402 12.4468 69.9742 15.7049 69.9742 19.7564V20.8006H69.9743ZM52.3639 29.1544H54.5652V22.8891H69.9743V29.1544H72.1756V19.7564C72.1756 14.577 67.7291 10.3584 62.2699 10.3584C56.8107 10.3584 52.3641 14.577 52.3641 19.7564V29.1544H52.3639ZM75.4774 12.4467H90.8866V29.1544H93.0878V10.3584H73.2763V29.1544H75.4775V12.4467H75.4774ZM94.1885 29.1544H96.3898V20.8006H102.994C107.836 20.8006 111.799 24.5599 111.799 29.1544H114C114 25.0193 111.447 21.4688 107.792 19.7564C111.447 18.0437 114 14.4936 114 10.3584H111.799C111.799 14.9529 107.836 18.7121 102.994 18.7121H96.3898V10.3584H94.1885V29.1544Z" fill="#5C5C5B"/>
</svg>
