<svg width="45" height="51" viewBox="0 0 45 51" fill="none" xmlns="http://www.w3.org/2000/svg">
<path fill-rule="evenodd" clip-rule="evenodd" d="M18.6935 39.1975C18.7196 38.045 19.798 37.9362 20.4318 37.8407C22.4945 37.6051 29.16 37.5004 30.5048 36.5319C31.4655 35.8399 31.6744 34.0837 29.7085 33.0012C23.879 29.7911 19.009 35.1204 6.62453 28.2956C3.57156 27.0787 -0.576727 28.3195 0.0667014 32.8444C2.05747 40.7145 10.2314 47.1978 18.5661 48.3398C40.6273 51.3627 49.1552 25.1734 43.4149 26.0704C42.8091 26.1649 41.9804 26.6071 41.5573 27.058L35.3931 34.2975C34.3818 35.5204 34.6716 34.8555 34.0631 36.5629C33.8397 37.1898 33.2323 37.9381 32.8441 38.2328C30.581 39.951 26.4348 39.9259 23.2611 40.2007C20.957 40.4291 18.9047 40.7749 18.6932 39.1975H18.6935Z" fill="#5C5C5B"/>
<path fill-rule="evenodd" clip-rule="evenodd" d="M21.9273 25.6472C21.1615 24.7626 11.4183 17.1453 10.1919 15.7054L22.37 23.6983C22.4093 23.72 22.4533 23.7452 22.4928 23.766L22.7646 23.8954C22.799 23.9119 22.8586 23.9412 22.9083 23.9575C22.9253 23.9097 22.9246 23.7902 22.9469 23.8108C23.1415 23.9898 22.7272 20.5981 22.6918 20.3582C22.4966 19.0309 22.1579 17.6759 21.4994 16.4779C19.8484 13.4746 16.7258 11.6258 13.385 10.851C12.3086 10.6013 11.2685 10.4954 10.0264 10.3781C8.23164 10.2085 4.07337 10.4031 2.21703 11.0209C3.61027 16.3673 4.46443 20.2674 8.87709 23.9321C13.2017 27.5238 17.2687 26.8366 21.9274 25.6473L21.9273 25.6472Z" fill="#9DB525"/>
<path fill-rule="evenodd" clip-rule="evenodd" d="M31.523 31.5937C32.8255 32.2338 33.5581 33.4313 34.1897 34.4011C35.5896 32.8417 41.5529 26.5836 41.6073 26.3369C40.2774 24.9486 32.3783 30.0421 31.523 31.5937Z" fill="#5C5C5B"/>
<path fill-rule="evenodd" clip-rule="evenodd" d="M27.318 29.9111C28.2772 30.1275 30.0074 30.5579 30.9774 31.3248C32.2756 29.7682 37.8541 26.5827 38.3959 26.4869C37.3754 25.2728 28.1558 28.4501 27.318 29.9111Z" fill="#5C5C5B"/>
<path fill-rule="evenodd" clip-rule="evenodd" d="M24.1462 29.661C24.8293 29.6559 26.2501 29.6454 26.9165 29.8135C27.6811 28.8967 31.3382 27.3732 32.0069 27.2777C29.8003 26.5907 24.6396 28.8004 24.146 29.661H24.1462Z" fill="#5C5C5B"/>
<path fill-rule="evenodd" clip-rule="evenodd" d="M28.9463 23.224C28.9338 22.0794 31.2388 10.3027 31.203 8.45174L27.2869 22.0007C27.2717 22.0413 27.2549 22.0875 27.2389 22.1274L27.1183 22.3922C27.1031 22.4258 27.0773 22.4847 27.0503 22.5275C27.0049 22.5013 26.9245 22.4092 26.9214 22.4386C26.8936 22.6943 24.9135 19.8433 24.7781 19.6379C24.0286 18.502 23.3701 17.2574 23.0631 15.9378C22.2937 12.6302 23.4337 9.30993 25.4682 6.67938C26.1238 5.83173 26.849 5.11653 27.7211 4.26909C28.9811 3.0449 32.299 0.658569 34.1397 0C36.6938 4.94566 38.6812 8.45451 37.783 13.9527C36.9026 19.3411 33.3211 21.2945 28.9463 23.2238V23.224Z" fill="#9DB525"/>
</svg>
