<svg width="320" height="573" viewBox="0 0 320 573" fill="none" xmlns="http://www.w3.org/2000/svg">
<g clip-path="url(#clip0_514_215)">
<g opacity="0.55" filter="url(#filter0_f_514_215)">
<ellipse cx="245.095" cy="173.733" rx="99.8232" ry="126.252" transform="rotate(153.14 245.095 173.733)" fill="url(#paint0_linear_514_215)"/>
</g>
<mask id="path-2-inside-1_514_215" fill="white">
<path d="M296.986 467.467C282.635 467.467 271 455.946 271 441.733C271 427.521 282.635 415.999 296.986 415.999C311.338 415.999 322.973 427.521 322.973 441.733C322.973 455.946 311.338 467.467 296.986 467.467ZM322.973 520.953C313.219 520.953 305.313 513.046 305.312 503.293C305.312 493.539 313.219 485.632 322.973 485.632C323.435 485.632 323.893 485.651 324.347 485.686C332.94 486.306 338.811 483.673 340.877 469.164C342.77 454.263 355.493 442.742 370.908 442.742C387.629 442.742 401.184 456.297 401.184 473.018C401.183 489.738 387.629 503.293 370.908 503.293C367.533 503.293 364.286 502.74 361.254 501.721C347.505 497.489 342.625 501.598 339.508 509.508C336.993 516.195 330.539 520.953 322.973 520.953Z"/>
</mask>
<path d="M296.986 467.467V467.971V467.971V467.467ZM271 441.733H270.495V441.733L271 441.733ZM296.986 415.999V415.494V415.494V415.999ZM322.973 441.733L323.477 441.733V441.733H322.973ZM322.973 520.953L322.973 521.458H322.973V520.953ZM305.312 503.293H304.808V503.293L305.312 503.293ZM322.973 485.632V485.127H322.973L322.973 485.632ZM324.347 485.686L324.308 486.189L324.31 486.189L324.347 485.686ZM340.877 469.164L341.377 469.235L341.378 469.228L340.877 469.164ZM370.908 442.742V442.238H370.908L370.908 442.742ZM401.184 473.018L401.688 473.018V473.018H401.184ZM370.908 503.293L370.908 503.798H370.908V503.293ZM361.254 501.721L361.415 501.242L361.402 501.238L361.254 501.721ZM339.508 509.508L339.038 509.323L339.036 509.33L339.508 509.508ZM296.986 467.467V466.962C282.909 466.962 271.505 455.662 271.505 441.733L271 441.733L270.495 441.733C270.496 456.229 282.361 467.971 296.986 467.971V467.467ZM271 441.733H271.505C271.505 427.804 282.909 416.504 296.986 416.504V415.999V415.494C282.361 415.495 270.495 427.238 270.495 441.733H271ZM296.986 415.999V416.504C311.064 416.504 322.468 427.804 322.468 441.733H322.973H323.477C323.477 427.238 311.612 415.494 296.986 415.494V415.999ZM322.973 441.733L322.468 441.733C322.468 455.662 311.064 466.962 296.986 466.962V467.467V467.971C311.612 467.971 323.477 456.229 323.477 441.733L322.973 441.733ZM322.973 520.953L322.973 520.449C313.498 520.448 305.817 512.768 305.817 503.293L305.312 503.293L304.808 503.293C304.808 513.325 312.941 521.458 322.973 521.458L322.973 520.953ZM305.312 503.293H305.817C305.817 493.818 313.498 486.137 322.973 486.136L322.973 485.632L322.973 485.127C312.94 485.127 304.808 493.261 304.808 503.293H305.312ZM322.973 485.632V486.136C323.421 486.136 323.867 486.155 324.308 486.189L324.347 485.686L324.385 485.182C323.92 485.147 323.449 485.127 322.973 485.127V485.632ZM324.347 485.686L324.31 486.189C328.654 486.503 332.436 486.006 335.388 483.482C338.327 480.968 340.337 476.533 341.376 469.235L340.877 469.164L340.377 469.093C339.35 476.304 337.392 480.44 334.732 482.715C332.083 484.98 328.633 485.489 324.383 485.182L324.347 485.686ZM340.877 469.164L341.378 469.228C343.239 454.576 355.751 443.247 370.908 443.247L370.908 442.742L370.908 442.238C355.236 442.238 342.301 453.951 340.376 469.1L340.877 469.164ZM370.908 442.742V443.247C387.35 443.247 400.679 456.576 400.679 473.018H401.184H401.688C401.688 456.018 387.907 442.238 370.908 442.238V442.742ZM401.184 473.018L400.679 473.018C400.679 489.459 387.35 502.788 370.908 502.788V503.293V503.798C387.907 503.798 401.688 490.017 401.688 473.018L401.184 473.018ZM370.908 503.293L370.908 502.788C367.588 502.788 364.396 502.245 361.415 501.242L361.254 501.721L361.093 502.199C364.176 503.236 367.477 503.798 370.908 503.798L370.908 503.293ZM361.254 501.721L361.402 501.238C354.485 499.109 349.683 499.039 346.188 500.6C342.679 502.168 340.614 505.323 339.038 509.323L339.508 509.508L339.977 509.693C341.518 505.782 343.451 502.928 346.6 501.522C349.761 500.109 354.273 500.1 361.105 502.203L361.254 501.721ZM339.508 509.508L339.036 509.33C336.592 515.827 330.322 520.449 322.973 520.449V520.953V521.458C330.756 521.458 337.394 516.563 339.98 509.685L339.508 509.508Z" fill="#F5F5F5" mask="url(#path-2-inside-1_514_215)"/>
<g opacity="0.55" filter="url(#filter1_f_514_215)">
<ellipse cx="68.824" cy="191.8" rx="60.7091" ry="83.3639" transform="rotate(153.14 68.824 191.8)" fill="url(#paint1_linear_514_215)"/>
</g>
</g>
<defs>
<filter id="filter0_f_514_215" x="0.265549" y="-86.6837" width="489.656" height="520.832" filterUnits="userSpaceOnUse" color-interpolation-filters="sRGB">
<feFlood flood-opacity="0" result="BackgroundImageFix"/>
<feBlend mode="normal" in="SourceGraphic" in2="BackgroundImageFix" result="shape"/>
<feGaussianBlur stdDeviation="69.5293" result="effect1_foregroundBlur_514_215"/>
</filter>
<filter id="filter1_f_514_215" x="-92.9664" y="16.6977" width="323.577" height="350.204" filterUnits="userSpaceOnUse" color-interpolation-filters="sRGB">
<feFlood flood-opacity="0" result="BackgroundImageFix"/>
<feBlend mode="normal" in="SourceGraphic" in2="BackgroundImageFix" result="shape"/>
<feGaussianBlur stdDeviation="47.907" result="effect1_foregroundBlur_514_215"/>
</filter>
<linearGradient id="paint0_linear_514_215" x1="239.958" y1="183.814" x2="245.095" y2="299.985" gradientUnits="userSpaceOnUse">
<stop stop-color="#4DACD4"/>
<stop offset="1" stop-color="#96CA08"/>
</linearGradient>
<linearGradient id="paint1_linear_514_215" x1="68.824" y1="275.164" x2="68.824" y2="108.436" gradientUnits="userSpaceOnUse">
<stop stop-color="#96CA08"/>
<stop offset="1" stop-color="#4DACD4"/>
</linearGradient>
<clipPath id="clip0_514_215">
<rect width="320" height="573" fill="white"/>
</clipPath>
</defs>
</svg>
