<svg width="348" height="383" viewBox="0 0 348 383" fill="none" xmlns="http://www.w3.org/2000/svg">
<g opacity="0.42">
<path fill-rule="evenodd" clip-rule="evenodd" d="M215.131 310.401C210.576 302.936 216.668 298.056 220.12 294.986C231.66 285.476 271.64 258.94 275.83 247.534C278.824 239.384 272.907 227.352 256.562 228.064C208.092 230.174 200.368 283.126 97.3759 287.577C73.8906 291.648 53.8183 315.675 76.227 342.091C120.487 384.653 196.557 394.359 251.754 369.312C397.857 303.016 342.433 102.581 311.303 130.589C308.018 133.543 304.803 139.585 304.082 144.108L296.325 214.287C295.197 226.025 294.234 220.653 297.529 233.923C298.739 238.796 298.117 245.934 296.969 249.324C290.277 269.085 265.04 285.014 246.925 299.086C233.891 309.487 222.864 319.661 215.13 310.402L215.131 310.401Z" fill="#F18A45"/>
<path fill-rule="evenodd" clip-rule="evenodd" d="M179.313 211.269C171.052 208.589 80.8299 197.727 67.5058 193.286L174.025 197.099C174.352 197.085 174.721 197.075 175.046 197.055L177.223 196.827C177.499 196.799 177.98 196.754 178.348 196.666C178.256 196.295 177.762 195.534 177.982 195.579C179.894 195.968 163.509 175.903 162.314 174.508C155.701 166.785 148.106 159.441 139.213 154.341C116.92 141.558 90.4289 141.862 67.0071 149.876C59.4603 152.458 52.7218 155.818 44.7122 159.888C33.1386 165.769 8.72648 183.149 1.50727e-05 194.301C30.3142 223.055 51.4448 244.661 93.1848 250.954C134.092 257.121 155.936 236.948 179.314 211.27L179.313 211.269Z" fill="#F1DD45"/>
<path fill-rule="evenodd" clip-rule="evenodd" d="M261.802 212.031C272.316 211.067 281.655 215.875 289.45 219.621C291.559 204.224 302.111 141.096 301.432 139.309C287.692 135.598 260.64 198.798 261.802 212.031Z" fill="#FF9C59"/>
<path fill-rule="evenodd" clip-rule="evenodd" d="M229.428 217.597C236.128 215.258 248.378 211.294 257.394 212.43C258.897 197.446 279.686 155.443 282.578 152.729C271.426 148.931 228.531 205.011 229.428 217.597Z" fill="#F18A45"/>
<path fill-rule="evenodd" clip-rule="evenodd" d="M209.177 228.308C213.298 225.625 221.868 220.044 226.595 218.532C227.48 209.707 243.419 185.78 247.082 182.575C230.896 186.748 208.649 220.895 209.177 228.308L209.177 228.308Z" fill="#F1DD45"/>
<path fill-rule="evenodd" clip-rule="evenodd" d="M211.951 168.547C207.193 161.282 172.997 77.0877 165.209 65.3998L196.888 167.17C196.962 167.489 197.049 167.849 197.115 168.166L197.467 170.326C197.513 170.6 197.597 171.076 197.608 171.455C197.226 171.463 196.362 171.187 196.464 171.387C197.341 173.129 173.676 162.595 172.015 161.809C162.825 157.459 153.742 152.061 146.484 144.821C128.29 126.673 121.62 101.033 123.194 76.3298C123.702 68.3693 125.172 60.9854 126.993 52.1862C129.624 39.4743 139.977 11.3508 148.441 9.30646e-06C184.154 21.6893 210.554 36.3973 227.598 75.0148C244.301 112.862 230.579 139.241 211.95 168.546L211.951 168.547Z" fill="#9DB525"/>
</g>
</svg>
