<svg width="29" height="30" viewBox="0 0 29 30" fill="none" xmlns="http://www.w3.org/2000/svg">
<g clip-path="url(#clip0_103_1421)">
<path fill-rule="evenodd" clip-rule="evenodd" d="M28.6953 15.0085C28.6953 22.867 22.3248 29.2375 14.4663 29.2375C6.60784 29.2375 0.237305 22.867 0.237305 15.0085C0.237305 7.15008 6.60784 0.779541 14.4663 0.779541C22.3248 0.779541 28.6953 7.15008 28.6953 15.0085ZM14.9762 11.284C13.5922 11.8596 10.8262 13.0511 6.67814 14.8583C6.00456 15.1262 5.65171 15.3882 5.61959 15.6444C5.5653 16.0775 6.10758 16.248 6.84602 16.4802C6.94646 16.5117 7.05054 16.5445 7.15723 16.5792C7.88374 16.8153 8.86102 17.0916 9.36907 17.1026C9.82992 17.1125 10.3443 16.9225 10.9122 16.5326C14.7878 13.9164 16.7884 12.5941 16.914 12.5656C17.0026 12.5455 17.1254 12.5202 17.2086 12.5941C17.2918 12.6681 17.2836 12.8081 17.2748 12.8457C17.2211 13.0747 15.0925 15.0537 13.9909 16.0778C13.6475 16.3971 13.4039 16.6235 13.3541 16.6752C13.2426 16.7911 13.1289 16.9007 13.0196 17.006C12.3447 17.6567 11.8385 18.1446 13.0477 18.9414C13.6287 19.3243 14.0937 19.6409 14.5575 19.9568C15.0641 20.3018 15.5694 20.6459 16.2231 21.0744C16.3896 21.1836 16.5487 21.297 16.7036 21.4074C17.2932 21.8277 17.8228 22.2053 18.4772 22.1451C18.8574 22.1101 19.2501 21.7526 19.4496 20.6863C19.921 18.1663 20.8475 12.7063 21.0617 10.4564C21.0804 10.2593 21.0568 10.007 21.0379 9.89623C21.0189 9.78549 20.9793 9.6277 20.8354 9.51089C20.6649 9.37256 20.4017 9.34339 20.284 9.34546C19.7488 9.35489 18.9277 9.6404 14.9762 11.284Z" fill="#545454"/>
</g>
<defs>
<clipPath id="clip0_103_1421">
<rect width="28.458" height="28.458" fill="white" transform="translate(0.237305 0.779541)"/>
</clipPath>
</defs>
</svg>
