<svg width="43" height="43" viewBox="0 0 43 43" fill="none" xmlns="http://www.w3.org/2000/svg">
<circle cx="21.5" cy="21.5" r="20.5" transform="rotate(90 21.5 21.5)" fill="white" stroke="white" stroke-width="2"/>
<path d="M21.7071 12.2929C21.3166 11.9024 20.6834 11.9024 20.2929 12.2929L13.9289 18.6569C13.5384 19.0474 13.5384 19.6805 13.9289 20.0711C14.3195 20.4616 14.9526 20.4616 15.3431 20.0711L21 14.4142L26.6569 20.0711C27.0474 20.4616 27.6805 20.4616 28.0711 20.0711C28.4616 19.6805 28.4616 19.0474 28.0711 18.6569L21.7071 12.2929ZM21 31L22 31L22 13L21 13L20 13L20 31L21 31Z" fill="black"/>
</svg>
