<svg width="320" height="1045" viewBox="0 0 320 1045" fill="none" xmlns="http://www.w3.org/2000/svg">
<g clip-path="url(#clip0_525_366)">
<g opacity="0.17">
<g opacity="0.64" filter="url(#filter0_d_525_366)">
<path d="M349.732 933.178C385.108 942.501 406.228 978.737 396.905 1014.11C387.582 1049.49 351.345 1070.61 315.969 1061.29C310.222 1059.77 304.851 1057.55 299.926 1054.73C270.237 1038.61 257.674 1044.26 244.186 1061.39C234.113 1074.76 216.612 1081.44 199.424 1076.91C179.569 1071.68 166.717 1053.22 167.832 1033.49C168.847 1006.28 161.308 993.354 127.739 986.601L127.74 986.6C126.721 986.394 125.702 986.159 124.685 985.891C96.3837 978.432 79.487 949.443 86.9456 921.142C94.4043 892.841 123.394 875.944 151.695 883.403C177.984 890.332 194.431 915.838 190.658 942.113C186.14 976.02 196.082 987.241 222.465 995.166L222.463 995.166C222.569 995.198 222.674 995.23 222.778 995.263L222.778 995.261C244.058 1001.83 257.727 999.502 273.013 968.792C286.402 940.541 318.403 924.921 349.732 933.178Z" fill="url(#paint0_linear_525_366)"/>
</g>
<g opacity="0.85" filter="url(#filter1_d_525_366)">
<path d="M235.555 821.711C227.876 857.481 250.649 892.703 286.418 900.381C322.187 908.06 357.409 885.287 365.087 849.517C366.33 843.725 366.775 837.947 366.495 832.298C365.525 798.419 376.289 789.794 397.761 785.515C414.186 782.534 427.997 769.964 431.718 752.629C436.032 732.535 425.357 712.71 407.221 704.796C382.529 693.404 374.427 680.832 383.575 647.858L383.573 647.859C383.85 646.858 384.1 645.843 384.321 644.814C390.464 616.199 372.245 588.022 343.63 581.879C315.014 575.736 286.837 593.954 280.695 622.569C274.979 649.197 290.357 675.445 315.579 683.912C347.747 695.204 353.24 709.143 348.387 736.222L348.387 736.221C348.367 736.329 348.349 736.437 348.33 736.545L348.149 737.574C344.306 758.826 335.786 769.613 302.097 769.386C270.809 768.512 242.361 790.005 235.555 821.711Z" fill="url(#paint1_linear_525_366)"/>
</g>
<mask id="path-3-inside-1_525_366" fill="white">
<path d="M176.153 741.168C207.225 732.568 239.386 750.787 247.985 781.859C249.369 786.858 250.057 791.885 250.11 796.837C250.921 814.654 267.776 818.264 276.095 810.785C280.186 806.974 285.229 804.063 290.991 802.468C310.126 797.173 329.931 808.391 335.227 827.526C340.523 846.661 329.303 866.467 310.168 871.763C291.033 877.058 271.228 865.839 265.932 846.704C265.469 845.028 265.134 843.347 264.918 841.672L264.84 841.144C262.995 830.184 247.785 822.39 235.793 835.721C228.523 844.103 218.789 850.511 207.294 853.692C176.221 862.291 144.061 844.073 135.461 813C126.862 781.928 145.08 749.767 176.153 741.168Z"/>
</mask>
<path d="M176.153 741.168L176.031 740.727V740.727L176.153 741.168ZM247.985 781.859L248.427 781.737V781.737L247.985 781.859ZM250.11 796.837L249.653 796.842L249.653 796.85L249.653 796.858L250.11 796.837ZM276.095 810.785L276.401 811.125L276.407 811.119L276.095 810.785ZM290.991 802.468L290.869 802.027V802.027L290.991 802.468ZM335.227 827.526L335.668 827.404V827.404L335.227 827.526ZM310.168 871.763L310.29 872.204V872.204L310.168 871.763ZM265.932 846.704L265.491 846.826V846.826L265.932 846.704ZM264.918 841.672L265.372 841.613L265.37 841.605L264.918 841.672ZM264.84 841.144L265.292 841.077L265.291 841.068L264.84 841.144ZM235.793 835.721L235.453 835.415L235.447 835.421L235.793 835.721ZM207.294 853.692L207.416 854.133V854.133L207.294 853.692ZM135.461 813L135.02 813.122V813.122L135.461 813ZM176.153 741.168L176.275 741.609C207.104 733.077 239.012 751.152 247.544 781.981L247.985 781.859L248.427 781.737C239.76 750.421 207.347 732.06 176.031 740.727L176.153 741.168ZM247.985 781.859L247.544 781.981C248.917 786.941 249.599 791.929 249.653 796.842L250.11 796.837L250.568 796.832C250.514 791.841 249.821 786.774 248.427 781.737L247.985 781.859ZM250.11 796.837L249.653 796.858C250.066 805.927 254.578 811.452 260.113 813.721C265.62 815.978 272.103 814.99 276.401 811.125L276.095 810.785L275.789 810.444C271.768 814.059 265.663 815.006 260.461 812.874C255.286 810.753 250.966 805.565 250.567 796.816L250.11 796.837ZM276.095 810.785L276.407 811.119C280.446 807.357 285.424 804.484 291.113 802.909L290.991 802.468L290.869 802.027C285.034 803.642 279.927 806.59 275.783 810.45L276.095 810.785ZM290.991 802.468L291.113 802.909C310.004 797.681 329.558 808.757 334.786 827.648L335.227 827.526L335.668 827.404C330.305 808.026 310.247 796.664 290.869 802.027L290.991 802.468ZM335.227 827.526L334.786 827.648C340.014 846.54 328.937 866.094 310.046 871.322L310.168 871.763L310.29 872.204C329.669 866.841 341.031 846.783 335.668 827.404L335.227 827.526ZM310.168 871.763L310.046 871.322C291.155 876.55 271.602 865.473 266.373 846.582L265.932 846.704L265.491 846.826C270.854 866.204 290.911 877.567 310.29 872.204L310.168 871.763ZM265.932 846.704L266.373 846.582C265.916 844.927 265.585 843.268 265.372 841.613L264.918 841.672L264.464 841.73C264.683 843.427 265.022 845.129 265.491 846.826L265.932 846.704ZM264.918 841.672L265.37 841.605L265.292 841.077L264.84 841.144L264.387 841.211L264.465 841.739L264.918 841.672ZM264.84 841.144L265.291 841.068C264.338 835.407 259.942 830.584 254.252 828.885C248.533 827.176 241.554 828.632 235.453 835.415L235.793 835.721L236.133 836.027C242.024 829.478 248.646 828.165 253.99 829.762C259.365 831.367 263.496 835.921 264.388 841.22L264.84 841.144ZM235.793 835.721L235.447 835.421C228.235 843.737 218.577 850.094 207.172 853.251L207.294 853.692L207.416 854.133C219.001 850.927 228.812 844.469 236.139 836.021L235.793 835.721ZM207.294 853.692L207.172 853.251C176.343 861.783 144.434 843.707 135.902 812.878L135.461 813L135.02 813.122C143.687 844.439 176.1 862.8 207.416 854.133L207.294 853.692ZM135.461 813L135.902 812.878C127.37 782.049 145.446 750.141 176.275 741.609L176.153 741.168L176.031 740.727C144.714 749.393 126.353 781.806 135.02 813.122L135.461 813Z" fill="white" mask="url(#path-3-inside-1_525_366)"/>
</g>
<g opacity="0.17">
<path opacity="0.64" d="M-4.55612 1207.66C-39.9323 1198.33 -61.0527 1162.1 -51.7296 1126.72C-42.4061 1091.34 -6.16918 1070.22 29.2071 1079.55C34.9541 1081.06 40.3243 1083.29 45.2494 1086.1C74.9388 1102.23 87.5017 1096.57 100.99 1079.44C111.063 1066.07 128.564 1059.39 145.752 1063.92C165.607 1069.15 178.459 1087.61 177.344 1107.34C176.329 1134.56 183.868 1147.48 217.436 1154.23L217.436 1154.23C218.455 1154.44 219.473 1154.68 220.491 1154.94C248.792 1162.4 265.689 1191.39 258.23 1219.69C250.771 1247.99 221.781 1264.89 193.48 1257.43C167.192 1250.5 150.745 1225 154.517 1198.72C159.036 1164.81 149.094 1153.59 122.71 1145.67L122.712 1145.67C122.607 1145.64 122.502 1145.6 122.397 1145.57L122.398 1145.57C101.118 1139 87.4489 1141.33 72.1628 1172.04C58.7741 1200.29 26.7724 1215.91 -4.55612 1207.66Z" fill="url(#paint2_linear_525_366)"/>
<mask id="path-6-inside-2_525_366" fill="white">
<path d="M118.538 1014.08C125.312 1024.56 122.392 1038.49 112.017 1045.2C101.641 1051.91 87.7394 1048.85 80.9655 1038.37C74.1916 1027.9 77.1109 1013.97 87.4861 1007.26C97.8616 1000.55 111.764 1003.6 118.538 1014.08ZM145.316 969.865C149.919 976.985 147.88 986.49 140.759 991.094C133.639 995.698 124.134 993.657 119.531 986.536C119.319 986.209 119.122 985.876 118.939 985.54C115.337 978.957 110.652 975.897 99.0894 981.225C87.3127 986.896 72.8792 983.049 65.5975 971.787C57.7056 959.58 61.2037 943.287 73.4101 935.395C85.6165 927.504 101.91 931 109.802 943.207C111.405 945.686 112.538 948.334 113.224 951.046C116.624 963.032 121.918 964.652 129.151 963.197C135.221 961.874 141.744 964.34 145.316 969.865Z"/>
</mask>
<path d="M118.538 1014.08L118.922 1013.83V1013.83L118.538 1014.08ZM112.017 1045.2L112.265 1045.58L112.265 1045.58L112.017 1045.2ZM80.9655 1038.37L80.5811 1038.62V1038.62L80.9655 1038.37ZM87.4861 1007.26L87.2376 1006.87L87.2376 1006.87L87.4861 1007.26ZM145.316 969.865L145.7 969.617L145.7 969.617L145.316 969.865ZM140.759 991.094L141.008 991.478L141.008 991.478L140.759 991.094ZM119.531 986.536L119.146 986.785L119.146 986.785L119.531 986.536ZM118.939 985.54L119.34 985.321L119.34 985.32L118.939 985.54ZM99.0894 981.225L98.8979 980.809L98.8909 980.813L99.0894 981.225ZM65.5975 971.787L65.2131 972.035L65.2131 972.035L65.5975 971.787ZM73.4101 935.395L73.1616 935.011V935.011L73.4101 935.395ZM109.802 943.207L110.186 942.958L110.186 942.958L109.802 943.207ZM113.224 951.046L112.78 951.159L112.783 951.171L113.224 951.046ZM129.151 963.197L129.242 963.646L129.249 963.644L129.151 963.197ZM118.538 1014.08L118.153 1014.33C124.792 1024.6 121.928 1038.25 111.768 1044.81L112.017 1045.2L112.265 1045.58C122.857 1038.73 125.831 1024.52 118.922 1013.83L118.538 1014.08ZM112.017 1045.2L111.768 1044.81C101.609 1051.38 87.9887 1048.39 81.3498 1038.12L80.9655 1038.37L80.5811 1038.62C87.49 1049.31 101.674 1052.43 112.265 1045.58L112.017 1045.2ZM80.9655 1038.37L81.3498 1038.12C74.7109 1027.86 77.5752 1014.21 87.7346 1007.64L87.4861 1007.26L87.2376 1006.87C76.6467 1013.72 73.6724 1027.94 80.5811 1038.62L80.9655 1038.37ZM87.4861 1007.26L87.7346 1007.64C97.8943 1001.07 111.514 1004.06 118.153 1014.33L118.538 1014.08L118.922 1013.83C112.013 1003.15 97.8288 1000.02 87.2376 1006.87L87.4861 1007.26ZM145.316 969.865L144.931 970.113C149.398 977.022 147.419 986.243 140.511 990.71L140.759 991.094L141.008 991.478C148.341 986.737 150.441 976.949 145.7 969.617L145.316 969.865ZM140.759 991.094L140.511 990.71C133.603 995.176 124.381 993.196 119.915 986.288L119.531 986.536L119.146 986.785C123.887 994.117 133.675 996.219 141.008 991.478L140.759 991.094ZM119.531 986.536L119.915 986.288C119.71 985.971 119.519 985.648 119.34 985.321L118.939 985.54L118.537 985.759C118.726 986.105 118.928 986.447 119.146 986.785L119.531 986.536ZM118.939 985.54L119.34 985.32C117.519 981.992 115.371 979.451 112.131 978.478C108.904 977.508 104.715 978.129 98.8979 980.809L99.0894 981.225L99.281 981.641C105.027 978.993 108.961 978.48 111.868 979.354C114.761 980.224 116.756 982.505 118.537 985.759L118.939 985.54ZM99.0894 981.225L98.8909 980.813C87.3193 986.385 73.1367 982.605 65.9818 971.538L65.5975 971.787L65.2131 972.035C72.6217 983.494 87.3061 987.407 99.288 981.637L99.0894 981.225ZM65.5975 971.787L65.9818 971.538C58.2272 959.544 61.6644 943.535 73.6586 935.78L73.4101 935.395L73.1616 935.011C60.743 943.04 57.1841 959.617 65.2131 972.035L65.5975 971.787ZM73.4101 935.395L73.6586 935.78C85.6528 928.025 101.663 931.461 109.417 943.455L109.802 943.207L110.186 942.958C102.157 930.54 85.5803 926.982 73.1616 935.011L73.4101 935.395ZM109.802 943.207L109.417 943.455C110.993 945.892 112.106 948.494 112.78 951.159L113.224 951.046L113.667 950.934C112.97 948.175 111.816 945.48 110.186 942.958L109.802 943.207ZM113.224 951.046L112.783 951.171C114.494 957.203 116.709 960.735 119.501 962.546C122.304 964.364 125.582 964.382 129.242 963.646L129.151 963.197L129.061 962.748C125.487 963.467 122.502 963.402 119.999 961.778C117.485 960.147 115.353 956.876 113.664 950.922L113.224 951.046ZM129.151 963.197L129.249 963.644C135.139 962.361 141.466 964.754 144.931 970.113L145.316 969.865L145.7 969.617C142.021 963.927 135.304 961.388 129.054 962.75L129.151 963.197Z" fill="#F5F5F5" mask="url(#path-6-inside-2_525_366)"/>
</g>
<g opacity="0.55" filter="url(#filter3_f_525_366)">
<ellipse cx="275.355" cy="-18.8215" rx="72.4933" ry="99.5457" transform="rotate(153.14 275.355 -18.8215)" fill="url(#paint3_linear_525_366)"/>
</g>
</g>
<defs>
<filter id="filter0_d_525_366" x="78.3188" y="876.606" width="327.655" height="210.415" filterUnits="userSpaceOnUse" color-interpolation-filters="sRGB">
<feFlood flood-opacity="0" result="BackgroundImageFix"/>
<feColorMatrix in="SourceAlpha" type="matrix" values="0 0 0 0 0 0 0 0 0 0 0 0 0 0 0 0 0 0 127 0" result="hardAlpha"/>
<feOffset dy="1.8306"/>
<feGaussianBlur stdDeviation="3.43238"/>
<feComposite in2="hardAlpha" operator="out"/>
<feColorMatrix type="matrix" values="0 0 0 0 0.150171 0 0 0 0 0.290724 0 0 0 0 0.350962 0 0 0 0.62 0"/>
<feBlend mode="normal" in2="BackgroundImageFix" result="effect1_dropShadow_525_366"/>
<feBlend mode="normal" in="SourceGraphic" in2="effect1_dropShadow_525_366" result="shape"/>
</filter>
<filter id="filter1_d_525_366" x="227.202" y="575.653" width="212.335" height="334.913" filterUnits="userSpaceOnUse" color-interpolation-filters="sRGB">
<feFlood flood-opacity="0" result="BackgroundImageFix"/>
<feColorMatrix in="SourceAlpha" type="matrix" values="0 0 0 0 0 0 0 0 0 0 0 0 0 0 0 0 0 0 127 0" result="hardAlpha"/>
<feOffset dy="1.8306"/>
<feGaussianBlur stdDeviation="3.43238"/>
<feComposite in2="hardAlpha" operator="out"/>
<feColorMatrix type="matrix" values="0 0 0 0 0.150171 0 0 0 0 0.290724 0 0 0 0 0.350962 0 0 0 0.62 0"/>
<feBlend mode="normal" in2="BackgroundImageFix" result="effect1_dropShadow_525_366"/>
<feBlend mode="normal" in="SourceGraphic" in2="effect1_dropShadow_525_366" result="shape"/>
</filter>
<filter id="filter3_f_525_366" x="82.1617" y="-227.913" width="386.388" height="418.182" filterUnits="userSpaceOnUse" color-interpolation-filters="sRGB">
<feFlood flood-opacity="0" result="BackgroundImageFix"/>
<feBlend mode="normal" in="SourceGraphic" in2="BackgroundImageFix" result="shape"/>
<feGaussianBlur stdDeviation="57.2063" result="effect1_foregroundBlur_525_366"/>
</filter>
<linearGradient id="paint0_linear_525_366" x1="142.325" y1="906.723" x2="305.108" y2="1090.26" gradientUnits="userSpaceOnUse">
<stop stop-color="#ABB249"/>
<stop offset="1" stop-color="#4DACD4"/>
</linearGradient>
<linearGradient id="paint1_linear_525_366" x1="305.732" y1="624.756" x2="395.839" y2="852.931" gradientUnits="userSpaceOnUse">
<stop stop-color="#ABB249"/>
<stop offset="1" stop-color="#4DACD4"/>
</linearGradient>
<linearGradient id="paint2_linear_525_366" x1="202.85" y1="1234.11" x2="40.0679" y2="1050.57" gradientUnits="userSpaceOnUse">
<stop stop-color="#ABB249"/>
<stop offset="1" stop-color="#4DACD4"/>
</linearGradient>
<linearGradient id="paint3_linear_525_366" x1="275.355" y1="80.7242" x2="275.355" y2="-118.367" gradientUnits="userSpaceOnUse">
<stop stop-color="#96CA08"/>
<stop offset="1" stop-color="#4DACD4"/>
</linearGradient>
<clipPath id="clip0_525_366">
<rect width="320" height="1045" fill="white"/>
</clipPath>
</defs>
</svg>
